<?xml version="1.0" encoding="UTF-8" standalone="no"?>
<!-- Created with Inkscape (http://www.inkscape.org/) -->

<svg
   width="147.84619"
   height="192.36209"
   viewBox="0 0 39.117637 50.895803"
   version="1.1"
   id="svg1"
   xml:space="preserve"
   xmlns:xlink="http://www.w3.org/1999/xlink"
   xmlns="http://www.w3.org/2000/svg"
   xmlns:svg="http://www.w3.org/2000/svg"><defs
     id="defs1"><linearGradient
       id="linearGradient10"><stop
         style="stop-color:#73f0c6;stop-opacity:1;"
         offset="0"
         id="stop9" /><stop
         style="stop-color:#abffd1;stop-opacity:1;"
         offset="1"
         id="stop10" /></linearGradient><linearGradient
       xlink:href="#linearGradient10"
       id="linearGradient3"
       gradientUnits="userSpaceOnUse"
       gradientTransform="matrix(1.4625544,0,0,1.4625544,169.63174,4.0122056)"
       x1="343.26321"
       y1="77.261597"
       x2="343.16461"
       y2="50.535416" /></defs><g
     id="layer3"
     transform="translate(-652.94033,-68.990089)"><path
       id="rect17-6-3"
       style="fill:url(#linearGradient3);fill-opacity:1;stroke:none;stroke-width:2.30061;stroke-linecap:round;stroke-dasharray:none;stroke-opacity:1"
       d="m 663.26527,68.990087 c -5.72787,0.14996 -10.32494,4.840123 -10.32494,10.604123 -5e-5,5.316379 3.93564,9.811536 9.2053,10.514669 -0.16614,0.378718 -1.60323,2.150061 -2.00411,3.404372 -0.70714,2.212681 -0.59163,4.620018 -0.60311,6.942939 -0.008,1.86081 0.19947,3.73944 0.42781,5.56574 0.19097,1.52733 0.51991,3.62866 1.85548,3.6107 0.93591,-0.0131 1.78417,-0.22826 2.6707,-0.56488 0.78678,-0.29875 0.85584,-1.45638 0.82314,-2.38645 -0.053,-1.5029 -0.46018,-2.90082 -0.57786,-4.36314 -0.10929,-1.35908 -0.44539,-2.765327 -0.11827,-4.089002 0.0599,-0.241964 0.12126,-0.610587 0.36721,-0.650715 0.30774,-0.0502 0.63662,0.325213 0.90465,0.584347 0.19833,0.191788 1.32925,1.188089 1.95936,1.817975 1.25914,1.258635 2.6418,2.436095 3.6338,3.914415 0.38974,0.58083 0.66309,1.23959 0.88232,1.90383 0.49482,1.49946 0.6846,3.08429 0.95803,4.63945 0.30554,1.73774 0.44722,3.19206 0.76181,5.2382 0.17186,1.11824 0.18349,2.72242 1.16075,3.43179 1.26385,0.91734 3.55411,1.1298 4.68419,0.052 1.39042,-1.32615 0.59577,-3.70334 0.20919,-5.76053 -0.5507,-2.93089 -1.25443,-5.83412 -2.02357,-8.71544 -0.12986,-0.48585 -0.52917,-0.94917 -0.43718,-1.44355 0.0815,-0.43778 0.47305,-0.77684 0.82098,-1.05471 0.28171,-0.22495 0.61849,-0.45927 0.97895,-0.4581 0.39445,10e-4 0.76606,0.25533 1.06842,0.5086 1.13796,0.95308 1.76576,2.38773 2.59206,3.6208 0.93917,1.4014 1.68124,2.91482 2.68657,4.28954 0.55897,0.76436 1.23385,1.73624 2.17652,1.82591 1.50635,0.14322 3.48778,-0.77398 3.96563,-2.20969 0.43251,-1.29947 -0.80904,-2.67496 -1.67513,-3.75138 -1.13787,-1.41416 -2.04061,-3.05568 -3.18652,-4.48867 -1.12137,-1.40235 -2.23641,-2.838979 -3.59913,-4.0082 -1.28558,-1.103014 -2.93895,-1.711868 -4.25277,-2.781067 -0.78391,-0.637933 -1.61322,-1.285861 -2.14117,-2.14766 -0.17598,-0.287163 -0.87007,-0.938591 -0.55477,-1.056879 0.67613,-0.253647 2.70804,-0.393813 4.00277,-0.815489 1.56905,-0.511021 3.13491,-1.134528 4.50251,-2.05799 0.903,-0.609753 2.0259,-1.216443 2.37133,-2.249838 0.22816,-0.682632 0.0416,-1.53069 -0.35791,-2.129401 -0.43517,-0.652154 -1.21576,-1.141437 -1.99215,-1.250333 -1.63374,-0.229145 -2.41723,0.387283 -4.75397,1.376238 -2.25038,0.952402 -5.46804,1.377388 -7.32587,2.052607 -1.85784,0.675218 -3.89864,1.470724 -5.78329,1.470724 -2.22394,0 -4.27951,-0.739677 -5.93295,-1.985344 -0.34939,0.14907 -0.72533,0.225813 -1.10524,0.225803 -1.55509,-8.8e-5 -2.81558,-1.26056 -2.81568,-2.815695 -1.2e-4,-0.644896 0.22059,-1.270424 0.62619,-1.771802 -0.4223,-1.098088 -0.65288,-2.289575 -0.65288,-3.534226 0,-4.040446 2.43929,-7.524685 5.92286,-9.054518 z m -4.07386,9.054519 c 0,0.892313 0.14455,1.75012 0.41122,2.550934 0.19154,-0.04054 0.38644,-0.06058 0.58216,-0.06059 1.5555,-1.54e-4 2.81729,1.260208 2.81715,2.815693 -1.1e-4,0.459681 -0.11384,0.91262 -0.32896,1.318754 1.29206,0.886962 2.85893,1.405322 4.54998,1.405322 2.62028,0 5.22813,-0.792176 6.63709,-2.724565 0.81393,-1.116268 1.15256,-11.129078 -5.94006,-13.033962 -3.93141,-1.055878 -8.72858,2.086292 -8.72858,7.728422 z m 0.99338,4.127233 c -0.71398,3e-6 -1.29277,0.5788 -1.29277,1.292779 0,0.713981 0.57879,1.292776 1.29277,1.292784 0.71399,1.1e-5 1.29281,-0.57879 1.29281,-1.292784 0,-0.713992 -0.57882,-1.292792 -1.29281,-1.292779 z m -4.18205,6.976111 -0.54106,0.515092 c -1.38366,1.319266 -1.4348,3.495272 -0.11553,4.878953 l 2.47736,2.598546 c 0.0549,-1.346502 0.21606,-2.747953 0.66585,-4.155367 0.24533,-0.767537 0.64836,-1.357111 1.02298,-1.939893 -1.27773,-0.453701 -2.46088,-1.097431 -3.5097,-1.897331 z m 10.41008,11.86084 c 0.0451,0.43464 0.0131,0.6574 0.0533,1.16942 0.094,1.16971 0.48016,2.52178 0.57209,4.17917 1.14521,0.45974 2.4875,0.28018 3.48589,-0.55043 -0.14421,-0.36118 -0.30292,-0.68226 -0.47976,-0.94579 -0.81387,-1.21287 -2.09386,-2.32813 -3.41949,-3.65326 -0.053,-0.0531 -0.14834,-0.13747 -0.21211,-0.19911 z" /></g></svg>
