<?xml version="1.0" encoding="UTF-8" standalone="no"?>
<!-- Created with Inkscape (http://www.inkscape.org/) -->

<svg
   width="613.19391"
   height="338.0611"
   viewBox="0 0 162.24088 89.445332"
   version="1.1"
   id="svg1"
   xml:space="preserve"
   xmlns:xlink="http://www.w3.org/1999/xlink"
   xmlns="http://www.w3.org/2000/svg"
   xmlns:svg="http://www.w3.org/2000/svg"><defs
     id="defs1"><linearGradient
       id="linearGradient10"><stop
         style="stop-color:#73f0c6;stop-opacity:1;"
         offset="0"
         id="stop9" /><stop
         style="stop-color:#abffd1;stop-opacity:1;"
         offset="1"
         id="stop10" /></linearGradient><linearGradient
       xlink:href="#linearGradient10"
       id="linearGradient1"
       gradientUnits="userSpaceOnUse"
       gradientTransform="matrix(0.88937458,0,0,0.88937458,504.34643,138.68977)"
       x1="343.26321"
       y1="77.261597"
       x2="343.16461"
       y2="50.535416" /></defs><g
     id="layer3"
     transform="translate(-729.00693,-167.84399)"><rect
       style="fill:#000924;fill-opacity:0;stroke:none;stroke-width:4.54301;stroke-linecap:round"
       id="rect2-6-9"
       width="162.24088"
       height="89.44532"
       x="729.0069"
       y="167.84401" /><g
       id="g4"><text
         xml:space="preserve"
         style="font-weight:300;font-size:22.2568px;font-family:Comfortaa;-inkscape-font-specification:'Comfortaa Light';text-align:start;letter-spacing:0px;writing-mode:lr-tb;direction:ltr;text-anchor:start;fill:#73f0c6;fill-opacity:1;stroke-width:6.30902"
         x="810.10504"
         y="230.74083"
         id="text1-1-6-7-1-8-9-87"><tspan
           id="tspan1-1-2-5-9-6-2-1"
           style="font-style:normal;font-variant:normal;font-weight:normal;font-stretch:normal;font-family:'Exo 2';-inkscape-font-specification:'Exo 2, ';text-align:center;text-anchor:middle;fill:#73f0c6;fill-opacity:1;stroke-width:6.30902"
           x="810.10504"
           y="230.74083"><tspan
             style="font-style:normal;font-variant:normal;font-weight:200;font-stretch:normal;font-family:'Exo 2';-inkscape-font-specification:'Exo 2 Ultra-Light';text-align:center;text-anchor:middle;fill:#73f0c6;fill-opacity:1"
             id="tspan5-4-8-02-7">TETHER</tspan><tspan
             style="font-style:normal;font-variant:normal;font-weight:500;font-stretch:normal;font-family:'Exo 2';-inkscape-font-specification:'Exo 2 Medium';fill:#73f0c6;fill-opacity:1"
             id="tspan8-7-8-3-2">NAUT</tspan></tspan></text><path
         style="fill:none;fill-opacity:1;stroke:#73f0c6;stroke-width:0.8;stroke-linecap:round;stroke-dasharray:none;stroke-opacity:1"
         d="m 743.08986,215.77762 c -4.04433,0.11442 -4.17701,-3.45493 -3.12793,-5.17653 13.39483,-21.98173 35.671,1.39819 59.81347,-14.67422"
         id="path4-7-7-2-4-4-7-7" /><text
         xml:space="preserve"
         style="font-style:normal;font-variant:normal;font-weight:500;font-stretch:normal;font-size:13.7938px;line-height:0;font-family:'Exo 2';-inkscape-font-specification:'Exo 2 Medium';text-align:start;letter-spacing:0px;writing-mode:lr-tb;direction:ltr;text-anchor:start;fill:#73f0c6;fill-opacity:1;stroke:none;stroke-width:3.47561;stroke-linecap:round;stroke-dasharray:none;stroke-opacity:1"
         x="810.03766"
         y="246.76521"
         id="text6-6-0-8-5-3-59-2"><tspan
           id="tspan6-7-9-9-0-1-2-2"
           style="font-style:normal;font-variant:normal;font-weight:200;font-stretch:normal;font-family:'Exo 2';-inkscape-font-specification:'Exo 2 Ultra-Light';text-align:center;text-anchor:middle;fill:#73f0c6;fill-opacity:1;stroke:none;stroke-width:3.47561"
           x="810.03766"
           y="246.76521">GAMES</tspan></text><path
         id="rect17-2-6"
         style="fill:url(#linearGradient1);fill-opacity:1;stroke:none;stroke-width:1.399;stroke-linecap:round;stroke-dasharray:none;stroke-opacity:1"
         d="m 804.52333,178.2026 c -3.48309,0.0912 -6.27856,2.94326 -6.27856,6.44833 -3e-5,3.23287 2.39324,5.96637 5.59771,6.39394 -0.10103,0.2303 -0.97492,1.30744 -1.21869,2.07018 -0.43002,1.34553 -0.35977,2.80943 -0.36675,4.22198 -0.005,1.13155 0.12129,2.27394 0.26015,3.3845 0.11612,0.92878 0.31615,2.20658 1.12831,2.19566 0.56912,-0.008 1.08495,-0.1388 1.62404,-0.3435 0.47844,-0.18166 0.52043,-0.88562 0.50055,-1.45119 -0.0322,-0.91391 -0.27983,-1.76398 -0.3514,-2.65321 -0.0665,-0.82645 -0.27083,-1.68159 -0.0719,-2.48651 0.0364,-0.14714 0.0737,-0.37129 0.2233,-0.3957 0.18713,-0.0305 0.38713,0.19777 0.55012,0.35534 0.1206,0.11663 0.80831,0.72248 1.19148,1.10551 0.76568,0.76537 1.60647,1.48137 2.2097,2.38034 0.237,0.3532 0.40322,0.75379 0.53653,1.15771 0.3009,0.91182 0.41631,1.87554 0.58258,2.82123 0.18579,1.05673 0.27195,1.94109 0.46325,3.18534 0.10451,0.68001 0.11158,1.6555 0.70585,2.08686 0.76854,0.55783 2.16124,0.68703 2.84844,0.0316 0.84551,-0.80643 0.36229,-2.25199 0.12721,-3.50296 -0.33488,-1.78227 -0.76282,-3.54772 -1.23053,-5.29984 -0.079,-0.29544 -0.32178,-0.57718 -0.26585,-0.87782 0.0496,-0.26621 0.28766,-0.47239 0.49924,-0.64137 0.1713,-0.13679 0.3761,-0.27927 0.5953,-0.27857 0.23986,7.7e-4 0.46584,0.15527 0.6497,0.30928 0.69199,0.57957 1.07375,1.45197 1.57622,2.2018 0.57111,0.85218 1.02236,1.77249 1.6337,2.60846 0.3399,0.46481 0.75029,1.05581 1.32353,1.11033 0.91601,0.0871 2.12091,-0.47066 2.41149,-1.34371 0.263,-0.7902 -0.49197,-1.62663 -1.01865,-2.2812 -0.69193,-0.85995 -1.24088,-1.85815 -1.9377,-2.72954 -0.68191,-0.85277 -1.35996,-1.72638 -2.18863,-2.43738 -0.78175,-0.67074 -1.78716,-1.04098 -2.58609,-1.69115 -0.47669,-0.38793 -0.98099,-0.78193 -1.30204,-1.30599 -0.10701,-0.17462 -0.52909,-0.57075 -0.33735,-0.64268 0.41115,-0.15425 1.64675,-0.23948 2.43407,-0.4959 0.95414,-0.31075 1.90633,-0.6899 2.73796,-1.25146 0.54911,-0.37079 1.23194,-0.73971 1.44199,-1.36811 0.13875,-0.41511 0.0253,-0.93081 -0.21764,-1.29489 -0.26462,-0.39657 -0.73929,-0.6941 -1.21142,-0.76032 -0.99347,-0.13934 -1.4699,0.23551 -2.89087,0.83689 -1.36845,0.57915 -3.3251,0.83758 -4.45484,1.24818 -1.12974,0.4106 -2.37074,0.89434 -3.5168,0.89434 -1.35237,0 -2.60235,-0.44979 -3.6078,-1.20728 -0.21247,0.0907 -0.44108,0.13732 -0.67209,0.13731 -0.94566,-5e-5 -1.71215,-0.76654 -1.71221,-1.71221 -7e-5,-0.39216 0.13414,-0.77255 0.38078,-1.07743 -0.2568,-0.66775 -0.39701,-1.39228 -0.39701,-2.14915 0,-2.45698 1.48332,-4.57574 3.60167,-5.50603 z m -2.4773,5.50602 c 0,0.54262 0.0879,1.06425 0.25006,1.55122 0.11648,-0.0247 0.23499,-0.0368 0.35401,-0.0368 0.9459,-1e-4 1.71319,0.76633 1.7131,1.71221 -7e-5,0.27953 -0.0692,0.55496 -0.20004,0.80193 0.78569,0.53936 1.73851,0.85457 2.76683,0.85457 1.59338,0 3.1792,-0.48172 4.03599,-1.6568 0.49494,-0.67879 0.70087,-6.76755 -3.61213,-7.92591 -2.39068,-0.64207 -5.30782,1.26867 -5.30782,4.69963 z m 0.60407,2.50976 c -0.43417,0 -0.78613,0.35197 -0.78613,0.78613 0,0.43417 0.35196,0.78614 0.78613,0.78614 0.43418,1e-5 0.78615,-0.35196 0.78615,-0.78614 0,-0.43417 -0.35197,-0.78614 -0.78615,-0.78613 z m -2.54309,4.24215 -0.32902,0.31323 c -0.8414,0.80224 -0.8725,2.12546 -0.0702,2.96687 l 1.50648,1.58017 c 0.0333,-0.81881 0.13138,-1.67102 0.4049,-2.52687 0.14918,-0.46673 0.39426,-0.82525 0.62207,-1.17964 -0.77699,-0.27589 -1.49645,-0.66734 -2.13424,-1.15376 z m 6.33033,7.21254 c 0.0274,0.2643 0.008,0.39976 0.0324,0.71111 0.0572,0.7113 0.29199,1.53349 0.34789,2.54135 0.69639,0.27956 1.51264,0.17037 2.11976,-0.33473 -0.0877,-0.21962 -0.18421,-0.41487 -0.29174,-0.57512 -0.49491,-0.73754 -1.27327,-1.41573 -2.07939,-2.22154 -0.0322,-0.0323 -0.0902,-0.0836 -0.12898,-0.12107 z" /></g></g></svg>
